<?xml version="1.0" encoding="UTF-8"?>
<svg id="Laag_1" data-name="Laag 1" xmlns="http://www.w3.org/2000/svg" viewBox="0 0 567.31 428.8">
  <defs>
    <style>
      .cls-1 {
        fill: #dad9ff;
      }
    </style>
  </defs>
  <path class="cls-1" d="m181.32,125.07h232.71c82.89,0,151.58,65.85,153.25,148.72,1.72,85.31-66.92,155.01-151.83,155.01h-234.13c-28.96,0-52.43-23.47-52.43-52.43h0s285.34,0,285.34,0c53.79,0,98.78-42.24,100.6-95.99,1.91-56.49-43.32-102.88-99.38-102.88H128.89s0,0,0,0c0-28.96,23.47-52.43,52.43-52.43Z"/>
  <path class="cls-1" d="m385.99,303.73h-232.68C69.24,303.73.04,236.02,0,151.94-.04,68.03,67.97,0,151.86,0h234.13c28.96,0,52.43,23.47,52.43,52.43h0s-285.3,0-285.3,0c-54.83,0-100.28,43.85-100.69,98.68-.41,55.26,44.26,100.2,99.43,100.2h286.56s0,0,0,0c0,28.96-23.47,52.43-52.43,52.43Z"/>
  <rect class="cls-1" x="375.3" y="188.19" width="73.8" height="52.43" transform="translate(197.81 626.61) rotate(-90)"/>
</svg>